<?xml version="1.0" standalone="no"?><!DOCTYPE svg PUBLIC "-//W3C//DTD SVG 1.1//EN" "http://www.w3.org/Graphics/SVG/1.1/DTD/svg11.dtd"><svg t="1614152774279" class="icon" viewBox="0 0 1024 1024" version="1.1" xmlns="http://www.w3.org/2000/svg" p-id="1921" xmlns:xlink="http://www.w3.org/1999/xlink" width="180" height="180"><defs><style type="text/css"></style></defs><path d="M594.9 754.9s2.9 21.4 5.5 47.9c26.3 10.1 65.9 18.9 109.2 6.3 32.7-9.5 54.4-25.7 68.5-41.1-17-38.7-33.4-86.4-36.6-131.7-7.2-101.1-34.3-139.4-131.3-202s-221.3 16.2-241.4 19.5c-20.1 3.2-95.9 4.2-112.6 4.5-62.8 1.1-114.7 56.5-86.2 63s135.2 15.6 183.7 63.4c48.5 47.7 241 82.2 241 82.2l0.2 88z" fill="#E9C499" p-id="1922"></path><path d="M509 208.3s-23.1 27.2-86.1 41c-63 13.9-136.4 78.6-138.1 146.2S309 530.7 412.5 570.6c19.5 8.8 54.6 7.1 69.3 7.9 14.7 0.9 49.1 3 68.2 2.2 19.1-0.9 89.6-13 126.4-59.4 36.8-46.4 55-125.3 26.9-172.9s-58.1-81.5-129.2-104c-46.4-12.6-61.8-31.5-65.1-36.1z" fill="#8E2C26" p-id="1923"></path><path d="M691 499.5c-13.5 13.8-28.9 25.9-37.6 30.1-14.4 6.9-19.6-0.6-29.5 3.5-9.8 4-8.1 12.1-26.6 13.9-18.5 1.7-28.9-8.1-50.3-6.9-21.4 1.2-42.8 9.8-61.8 8.7-19.1-1.2-28.3 13.3-42.8 13.3-14.4 0-31.2-12.7-41-17.9-9.8-5.2-12.1 1.7-37-12.1-19.6-10.9-53.2-45.5-66.5-59.7 16.6 39 50.9 73.9 114.5 98.4 19.5 8.8 54.6 7.1 69.3 7.9 14.7 0.9 49.1 3 68.2 2.2 19.1-0.9 89.6-13 126.4-59.4 5.4-6.8 10.3-14.2 14.7-22z" fill="#AB3F1F" p-id="1924"></path><path d="M465.3 240.3s-4.9 4.4-22.8 11.5c-29.9 11.8-71.4 28.8-90.2 53-30 38.7-60.7 88.4-40.5 147.4 20.2 58.9 55.5 93 107.5 109.2 52 16.2 167.6 2.9 198.2-9.2 30.6-12.1 86.1-60.1 82.6-131.2-1.2-25.2-1.1-45.9-9.2-65.9-14.8-36.4-44.2-65.5-67.7-81.2-11.6-7.7-30.8-15.5-44.4-20.4-29.2-10.4-43.8-15.8-62.8-30.8 0 0-39.7 14.5-50.7 17.6z" fill="#6C1815" p-id="1925"></path><path d="M547.8 252.2l26.5 7.2-10.4-11.2 24.9 1.4-0.3-0.2c-4.6-1.7-9.4-3.4-14.4-5-46.4-12.6-61.8-31.5-65.2-36.1 0 0-23.1 27.2-86.1 41-0.6 0.1-1.1 0.3-1.7 0.4l41.5-6.2s-13 9.1-14.3 12.1c0 0 18.6-4.8 20.4-6.1l-3.9 12.1 13-5.2 5.6 26.4 13.4-22.5 7.8 13 4.8-10.2 26.1 19.7-2.3-24.7 22.5 11.1-7.9-17z" fill="#CC8E5E" p-id="1926"></path><path d="M441 453.7m-24.7 0a24.7 24.7 0 1 0 49.4 0 24.7 24.7 0 1 0-49.4 0Z" fill="#FFFFFF" p-id="1927"></path><path d="M579.7 453.7m-24.7 0a24.7 24.7 0 1 0 49.4 0 24.7 24.7 0 1 0-49.4 0Z" fill="#FFFFFF" p-id="1928"></path><path d="M390.1 495.2a22.7 8.1 0 1 0 45.4 0 22.7 8.1 0 1 0-45.4 0Z" fill="#EF8E8E" p-id="1929"></path><path d="M585.2 495.2a22.7 8.1 0 1 0 45.4 0 22.7 8.1 0 1 0-45.4 0Z" fill="#EF8E8E" p-id="1930"></path><path d="M359.5 327s6.8-30.6 47.1-35.6c10.7-1 13.2 4.2 13 7.1-0.3 6.1-3.1 10.5-12.5 10.6-9.4 0-26.3 7.2-27.4 18.7s-7.4 13.5-13.6 12.8c-6.1-0.7-8-7.7-6.6-13.6z" fill="#FFFFFF" p-id="1931"></path><path d="M363.4 359.8m-9.6 0a9.6 9.6 0 1 0 19.2 0 9.6 9.6 0 1 0-19.2 0Z" fill="#FFFFFF" p-id="1932"></path><path d="M400.3 594.1c-19.9-19.5-89.8-50.5-118.5-61.1s-92.7-17.9-104.9-20.9c-9.2-2.3-4.8-14.8-2.1-20.9-14.2 13.6-18.1 27-5 29.9 28.5 6.4 135.2 15.6 183.7 63.4 5.9 5.8 13.9 11.4 23.4 16.7 18.3 0.1 28.8-1.8 23.4-7.1z" fill="#E8B480" p-id="1933"></path><path d="M719.2 641.1s-20.6-96.3-110.9-104.6c-90.4-8.3-138.4 13.5-189.2 29-15.7 4.8-30.6 10.9-54.6 10.3 9.5 5.6-18.2 1.4-10.8 8.7 48.5 47.7 241 82.2 241 82.2l0.2 57.9c4.3 9 7 19.4 7.8 31.1 3.6 47.8 143.8-10.3 116.5-114.6z" fill="#E8B480" p-id="1934"></path><path d="M712.8 650.7s-28.3-104.9-119-110.5-155.1 30-208 34.8c-52.9 4.8-137.7-13.7-159.4 36.1-1.6 4.5-0.3 14.7 17.9 15.2s87.2-3.5 125.4 17.1 86.3 42.9 137.9 45.7 84.9 28.5 88.5 76.2 144-10.3 116.7-114.6z" fill="#E9C499" p-id="1935"></path><path d="M595 755.3c0.1 1.1 0.6 4.5 1.2 9.6v0.5c0.1 0.8 0.2 1.5 0.3 2.2 1.1 8.7 2.5 21.3 3.9 35.2 10.9 4.2 24 8.1 38.7 10.4-5.9-41.3-16.1-80.7-21.2-94.9-14.4-40.6-93-52.9-130.7-53.5-37.7-0.5-69.8-20.3-132.3-38.8s-83.6-16.6-98.3-19.5c-14.6-2.9-9.2-18.3-8.7-18.7-10.7 5.1-17.6 14.7-21.3 23.3-1.6 4.5-0.3 14.7 17.9 15.2s87.2-3.5 125.4 17.1 86.3 42.9 137.9 45.7c47.8 2.7 79.9 25 87.2 66.2z" fill="#E8B480" p-id="1936"></path></svg>